<?xml version="1.0" encoding="utf-8"?>
<svg xmlns="http://www.w3.org/2000/svg" fill="none" height="48" viewBox="0 0 348 48" width="348">
<path d="M64.4211 18.4706C64.4211 9.4769 71.8352 2 80.9885 2H60.225V34.9197H80.9885C71.8352 34.9197 64.4211 27.4642 64.4211 18.4492" fill="#B8BE14"/>
<path d="M36.9176 34.7488C27.7642 34.7488 20.3502 27.4642 20.3502 18.4492C20.3502 9.43418 27.7425 2.1709 36.9176 2.1709C46.0927 2.1709 53.4849 9.45554 53.4849 18.4492C53.4849 27.4428 46.0709 34.7488 36.9176 34.7488ZM18.4804 2C9.34878 2.1709 2 9.45554 2 18.4706C2 27.4856 9.34878 34.7702 18.4804 34.9197H58.5073V2H18.4804Z" fill="#B8BE14"/>
<path d="M172.066 27.6352H172.022C171.413 27.6352 170.718 27.1438 170.87 26.5884L174.805 12.8309C176.023 8.43019 171.413 7.04163 168.435 7.04163C163.217 7.04163 160.368 10.2674 157.238 13.1513L157.107 13.0445L159.129 7.14844C156.824 7.14844 153.172 7.14844 150.867 7.14844L143.605 29.3442H152.476L155.063 20.4146C156.15 16.7616 156.89 14.9244 160.216 12.0405C161.434 10.9937 163.543 8.92153 165.369 8.92153C166.195 8.92153 166.934 9.69059 166.26 12.0405L162.738 23.8113C161.39 28.4256 164.782 29.5792 168.239 29.5792C169.609 29.5792 170.783 29.4296 171.826 29.1733L172.087 27.6138L172.066 27.6352Z" fill="black"/>
<path d="M132.039 7.04163C123.298 7.04163 112.319 13.0445 112.319 20.8632C112.319 25.6912 116.254 30.1987 124.32 30.1987C126.494 30.1987 128.06 30.0705 130.212 29.6432C137.126 28.2547 144.453 22.6577 144.453 16.4198C144.453 10.8655 138.474 7.04163 132.039 7.04163ZM131.299 8.60109C133.735 8.60109 135.235 9.32742 135.235 11.2714C135.235 14.3263 132.452 23.4267 131.017 26.3748C130.082 28.4256 128.386 28.6392 125.733 28.6392C124.038 28.6392 121.537 28.5324 121.537 26.802C121.537 25.0717 124.255 14.0272 125.19 11.8696C126.19 9.58377 128.169 8.60109 131.299 8.60109Z" fill="black"/>
<path d="M254.315 25.6484C253.489 27.037 252.619 28.6392 250.511 28.6392C247.054 28.6392 245.771 25.8621 245.771 23.4908C245.771 20.6496 246.597 17.8297 247.88 15.2662C249.163 12.7668 251.945 8.60109 255.816 8.60109C257.229 8.60109 259.142 9.04971 259.142 10.3742C259.142 13.5359 256.62 21.7391 254.315 25.6484ZM240.901 7.10571L234.182 33.8517H243.075L244.836 26.4816C246.88 29.1946 248.923 30.1987 252.706 30.1987C258.12 30.1987 267.687 24.2171 267.687 15.8216C267.687 10.6733 263.403 7.04163 257.098 7.04163C253.076 7.04163 249.837 9.66922 248.228 12.4464L248.097 12.3182C248.706 10.6519 249.38 8.9429 250.119 7.14844L240.901 7.08435V7.10571Z" fill="black"/>
<path d="M196.503 12.6386C196.503 14.4758 198.265 15.7148 200.439 15.7148C203.004 15.7148 204.635 14.2195 204.635 12.1473C204.635 8.32338 198.939 7.04163 195.286 7.04163C186.741 7.04163 177.044 13.5999 177.044 20.9273C177.044 26.3107 182.48 30.1987 188.785 30.1987C194.221 30.1987 198.939 27.977 202.309 24.5803C202.809 24.1744 203.287 23.6831 203.722 23.1704H196.96C196.96 23.1704 196.764 26.9516 193.09 28.3188C192.112 28.5324 191.09 28.6392 190.024 28.6392C188.068 28.6392 186.307 27.9129 186.307 26.033C186.307 21.3118 189.894 11.7628 191.525 10.0324C192.699 8.81472 193.438 8.60109 195.329 8.60109C196.395 8.60109 197.221 9.32742 197.221 9.92558C197.221 10.0751 197.091 10.481 196.895 11.0364C196.677 11.5278 196.547 12.0832 196.547 12.6386" fill="black"/>
<path d="M98.7952 28.2547C97.7298 28.4897 96.621 28.6392 95.4687 28.6392C93.5119 28.6392 91.7508 27.9129 91.7508 26.033C91.7508 21.3118 95.3382 11.7628 96.9689 10.0324C98.1212 8.81472 98.8821 8.6011 100.752 8.6011C101.839 8.6011 102.665 9.32742 102.665 9.92558C102.665 10.0751 102.535 10.481 102.339 11.0364C102.143 11.5278 102.013 12.0832 102.013 12.6386C102.013 14.4758 103.774 15.6935 105.948 15.6935C108.514 15.6935 110.144 14.1981 110.144 12.1259C110.144 8.30202 104.448 7.02026 100.774 7.02026C92.2291 7.02026 82.5322 13.5786 82.5322 20.9059C82.5322 26.2893 87.9677 30.1773 94.2728 30.1773C99.4039 30.1773 103.905 28.1906 107.209 25.1357C107.97 24.5589 108.688 23.9181 109.297 23.149H102.535C102.535 23.149 102.339 26.8234 98.8169 28.2333" fill="black"/>
<path d="M219.528 12.5318C220.659 9.37015 222.376 8.6011 224.398 8.6011C227.116 8.6011 228.051 9.64786 228.051 11.7628C228.051 16.9752 223.116 18.7483 221.202 18.7483H217.267L219.507 12.5318H219.528ZM227.334 23.1704C227.334 23.1704 227.16 26.4389 224.203 27.977C222.659 28.3829 221.007 28.6178 219.267 28.6178C217.093 28.6178 215.658 27.9983 215.658 26.0116C215.658 24.0249 216.397 22.1877 216.811 20.2864H222.311C224.29 20.2864 226.377 19.8378 228.203 19.3465C232.008 18.2997 234.987 16.4625 234.987 12.9163C234.987 8.57973 229.29 7.02026 225.029 7.02026C216.267 7.02026 206.309 13.9204 206.309 21.4186C206.309 26.9729 211.723 30.1773 218.115 30.1773C224.877 30.1773 230.356 27.8061 234.161 23.1704H227.355H227.334Z" fill="black"/>
<path d="M285.167 23.1916C284.428 25.2852 282.319 27.9555 279.906 27.9555C279.014 27.9555 278.492 27.571 279.014 25.7338L283.841 9.51959H288.733L289.059 7.96012H284.297L285.254 5.14026L276.731 5.18298L275.622 7.96012H271.426L271.013 9.51959H275.079L271.491 22.0167C271.013 23.683 270.535 25.3493 270.535 26.0115C270.535 28.6818 273.861 29.8568 276.644 29.8568C282.167 29.8568 286.907 27.2719 288.428 23.213H285.167V23.1916Z" fill="black"/>
<path d="M326.477 16.2702C322.998 18.8978 321.041 20.3932 318.237 22.444L316.171 23.8966C319.106 24.922 323.455 26.1397 330.977 22.3585L328.999 28.575C314.823 34.7275 314.367 25.9474 302.213 28.7673C306.192 25.7552 309.67 22.2517 312.192 20.3932C314.693 18.5346 317.237 16.612 320.106 14.433C321.781 13.1512 322.542 12.3608 322.802 10.7373C322.998 9.30598 321.759 8.19512 319.367 8.1524C316.758 8.1524 314.323 8.68646 313.954 11.25C313.932 11.4209 313.91 11.5704 313.888 11.7413C311.431 11.6772 306.518 11.7413 306.518 11.7413V11.6131C306.518 11.4636 306.54 11.2927 306.561 11.1218C307.257 6.27249 313.388 4.07214 319.954 4.02942C326.455 4.05078 331.412 6.12295 330.977 10.4596C330.651 12.7881 328.869 14.433 326.477 16.2702Z" fill="black"/>
<path d="M332.652 35.1974H333.13C333.674 35.1974 334.13 35.0052 334.13 34.5138C334.13 34.1507 333.869 33.7875 333.13 33.7875C332.913 33.7875 332.76 33.8089 332.652 33.8302V35.2188V35.1974ZM332.652 37.4619H331.999V33.403C332.347 33.3389 332.673 33.2962 333.173 33.2962C333.804 33.2962 334.217 33.4243 334.456 33.5952C334.695 33.7875 334.826 34.0439 334.826 34.4497C334.826 34.9838 334.456 35.3042 334.021 35.4324C334.391 35.5392 334.63 35.8597 334.717 36.4578C334.804 37.0987 334.913 37.3337 334.978 37.4619H334.282C334.174 37.3337 334.087 36.9492 334 36.4151C333.913 35.9024 333.652 35.6888 333.108 35.6888H332.652V37.4405V37.4619ZM333.347 32.2708C331.695 32.2708 330.369 33.638 330.369 35.347C330.369 37.056 331.695 38.4445 333.347 38.4445C335 38.4445 336.326 37.0773 336.326 35.3683C336.326 33.6593 335 32.2708 333.347 32.2708ZM333.347 31.694C335.369 31.694 337 33.3175 337 35.347C337 37.3764 335.391 39 333.347 39C331.304 39 329.673 37.3978 329.673 35.347C329.673 33.2962 331.325 31.694 333.347 31.694Z" fill="black"/>
</svg>